<svg width="332" height="332" viewBox="0 0 332 332" fill="none" xmlns="http://www.w3.org/2000/svg">
  <!-- Clipboard background -->
  <rect x="66" y="41" width="200" height="250" rx="16" fill="#2563eb"/>
  <rect x="76" y="51" width="180" height="230" rx="12" fill="white"/>
  
  <!-- Clip at top -->
  <rect x="126" y="25" width="80" height="35" rx="8" fill="#3b82f6"/>
  <rect x="136" y="32" width="60" height="20" rx="6" fill="#2563eb"/>
  
  <!-- Score lines -->
  <rect x="106" y="90" width="120" height="12" rx="6" fill="#60a5fa"/>
  <rect x="106" y="125" width="120" height="12" rx="6" fill="#60a5fa"/>
  <rect x="106" y="160" width="120" height="12" rx="6" fill="#60a5fa"/>
  <rect x="106" y="195" width="120" height="12" rx="6" fill="#60a5fa"/>
  <rect x="106" y="230" width="120" height="12" rx="6" fill="#60a5fa"/>
  
  <!-- Numbers (decorative) -->
  <circle cx="96" cy="96" r="8" fill="#2563eb"/>
  <circle cx="96" cy="131" r="8" fill="#2563eb"/>
  <circle cx="96" cy="166" r="8" fill="#2563eb"/>
  <circle cx="96" cy="201" r="8" fill="#2563eb"/>
  <circle cx="96" cy="236" r="8" fill="#2563eb"/>
</svg>
