<svg width="332" height="332" viewBox="0 0 332 332" fill="none" xmlns="http://www.w3.org/2000/svg">
<path fill-rule="evenodd" clip-rule="evenodd" d="M75.1704 282.2C166.85 282.2 241.17 207.879 241.17 116.2C241.17 72.2872 224.119 32.3567 196.277 2.66846C273.732 16.7102 332.472 84.4955 332.472 166C332.472 257.679 258.151 332 166.472 332C118.706 332 75.6517 311.825 45.3659 279.532C55.035 281.285 64.9958 282.2 75.1704 282.2Z" fill="#00AA81"/>
<path fill-rule="evenodd" clip-rule="evenodd" d="M287.579 279.531C277.909 281.284 267.947 282.2 257.772 282.2C166.093 282.2 91.772 207.879 91.772 116.2C91.772 72.2872 108.823 32.3569 136.665 2.6687C59.2107 16.7113 0.47197 84.4961 0.47197 166C0.47197 257.679 74.7927 332 166.472 332C214.238 332 257.293 311.825 287.579 279.531Z" fill="#00CC9A"/>
<path fill-rule="evenodd" clip-rule="evenodd" d="M324.431 217.183C329.651 201.062 332.472 183.86 332.472 166C332.472 74.3207 258.151 0 166.472 0C74.7927 0 0.47197 74.3207 0.47197 166C0.47197 183.86 3.29259 201.062 8.51268 217.183C30.088 150.551 92.653 102.367 166.472 102.367C240.291 102.367 302.856 150.551 324.431 217.183Z" fill="#00FFC1"/>
</svg> 